<svg width="214" height="214" viewBox="0 0 214 214" fill="none" xmlns="http://www.w3.org/2000/svg">
<g id="Frame 1" clip-path="url(#clip0_1_2)">
<path id="Ellipse 3" d="M107 116.39C135.96 116.39 161.912 121.584 180.415 129.754C189.674 133.843 196.821 138.567 201.577 143.532C206.306 148.469 208.441 153.376 208.441 158.078C208.441 162.78 206.306 167.686 201.577 172.623C196.821 177.588 189.674 182.313 180.415 186.401C161.912 194.572 135.96 199.767 107 199.767C78.0401 199.767 52.0885 194.572 33.585 186.401C24.3257 182.313 17.1788 177.588 12.4229 172.623C7.69378 167.686 5.55869 162.78 5.55859 158.078C5.55859 153.376 7.69364 148.469 12.4229 143.532C17.1788 138.567 24.3257 133.843 33.585 129.754C52.0885 121.584 78.0401 116.39 107 116.39Z" stroke="url(#paint0_linear_1_2)" stroke-width="11.1169"/>
<path id="Ellipse 2" d="M107 69.143C135.96 69.143 161.912 74.3369 180.415 82.5073C189.674 86.5957 196.821 91.3206 201.577 96.2856C206.306 101.223 208.441 106.129 208.441 110.831C208.441 115.534 206.306 120.439 201.577 125.376C196.821 130.341 189.674 135.066 180.415 139.155C161.912 147.325 135.96 152.52 107 152.52C78.0401 152.52 52.0885 147.325 33.585 139.155C24.3257 135.066 17.1788 130.341 12.4229 125.376C7.69378 120.439 5.55869 115.534 5.55859 110.831C5.55859 106.129 7.69364 101.223 12.4229 96.2856C17.1788 91.3206 24.3257 86.5957 33.585 82.5073C52.0885 74.3369 78.0401 69.143 107 69.143Z" stroke="url(#paint1_linear_1_2)" stroke-width="11.1169"/>
<path id="Ellipse 1" d="M107 13.5586C135.96 13.5586 161.912 18.7525 180.415 26.9229C189.674 31.0113 196.821 35.7362 201.577 40.7012C206.306 45.6383 208.441 50.5448 208.441 55.2471C208.441 59.9492 206.306 64.855 201.577 69.792C196.821 74.757 189.674 79.4818 180.415 83.5703C161.912 91.7407 135.96 96.9355 107 96.9355C78.0401 96.9355 52.0885 91.7407 33.585 83.5703C24.3257 79.4818 17.1788 74.757 12.4229 69.792C7.69378 64.855 5.55869 59.9492 5.55859 55.2471C5.55859 50.5448 7.69364 45.6383 12.4229 40.7012C17.1788 35.7362 24.3257 31.0113 33.585 26.9229C52.0885 18.7525 78.0401 13.5586 107 13.5586Z" stroke="url(#paint2_linear_1_2)" stroke-width="11.1169"/>
<path id="S" d="M140.604 159.013C144.516 165.789 144.75 173.256 141.307 181.415C137.816 189.49 132.104 195.818 124.171 200.398C116.321 204.93 108.665 206.651 101.204 205.56C93.6946 204.386 88.8906 201.981 86.7913 198.345C85.36 195.866 85.3881 194.197 86.8755 193.339C88.1977 192.575 91.9458 193.056 98.1198 194.78C100.418 195.326 103.165 195.503 106.36 195.311C109.637 195.072 112.681 194.141 115.49 192.519C121.275 189.179 125.539 184.734 128.284 179.182C131.112 173.583 131.523 169.049 129.52 165.578C128.231 163.347 125.098 161.355 120.119 159.601C115.14 157.848 109.95 156.492 104.549 155.534C99.1829 154.446 93.9865 152.983 88.9601 151.148C83.9337 149.312 80.8241 147.361 79.6313 145.295C78.4386 143.229 77.5875 140.801 77.0779 138.01C76.5684 135.219 76.4994 133 76.8708 131.353C78.042 125.939 81.157 119.789 86.2156 112.901C91.3568 105.967 96.2412 101.163 100.869 98.4916C103.265 97.108 105.743 96.7242 108.302 97.3401C110.862 97.9559 112.642 99.1316 113.644 100.867C114.121 101.693 113.635 102.855 112.186 104.353C110.737 105.851 108.474 108.039 105.398 110.916C102.357 113.664 99.7826 116.362 97.6759 119.011C90.272 128.133 87.5481 134.389 89.5042 137.777C90.5538 139.595 98.3222 141.886 112.809 144.65C118.389 145.726 123.906 147.554 129.362 150.133C134.853 152.582 138.6 155.542 140.604 159.013Z" fill="#44068F"/>
</g>
<defs>
<linearGradient id="paint0_linear_1_2" x1="107" y1="110.831" x2="107" y2="205.325" gradientUnits="userSpaceOnUse">
<stop stop-color="#7C28B3"/>
<stop offset="1" stop-color="#44068F"/>
</linearGradient>
<linearGradient id="paint1_linear_1_2" x1="107" y1="63.5844" x2="107" y2="158.078" gradientUnits="userSpaceOnUse">
<stop stop-color="#7C28B3"/>
<stop offset="1" stop-color="#44068F"/>
</linearGradient>
<linearGradient id="paint2_linear_1_2" x1="107" y1="8" x2="107" y2="102.494" gradientUnits="userSpaceOnUse">
<stop stop-color="#7C28B3"/>
<stop offset="1" stop-color="#44068F"/>
</linearGradient>
<clipPath id="clip0_1_2">
<rect width="214" height="214" fill="white"/>
</clipPath>
</defs>
</svg>
